<svg width="735" height="194" viewBox="0 0 735 194" fill="none" xmlns="http://www.w3.org/2000/svg">
<g clip-path="url(#clip0_108_229)">
<path d="M714.74 1.4041C713.68 0.797292 712.359 1.24942 711.907 2.22507C711.442 3.23642 712.002 4.55712 713.204 4.93786C723.728 9.24501 731.156 19.5845 731.156 31.6374C731.156 39.4902 728.001 46.6291 722.882 51.8286C721.382 51.2099 719.216 50.1272 717.073 48.4138C713.787 45.7843 712.24 42.7979 711.371 41.1678C710.526 39.5616 709.442 37.1344 708.811 33.9694H695.717C695.074 36.123 693.99 38.8477 692.122 41.7033C688.574 47.1169 684.05 50.1034 681.419 51.5669C676.455 46.3793 673.408 39.3593 673.408 31.6374C673.408 19.3823 681.098 8.88806 691.919 4.7118C693.324 4.14068 693.752 2.57012 693.205 1.67776C692.693 0.844885 691.252 0.499837 690.11 1.28512C678.074 6.11578 669.551 17.895 669.551 31.6255C669.551 49.6632 684.229 64.3336 702.276 64.3336C720.323 64.3336 735.001 49.6632 735.001 31.6255C735.001 18.0021 726.62 6.30615 714.74 1.3922V1.4041Z" fill="#0000FF"/>
<path d="M694.418 31.2804H710.251C711.537 32.9462 712.81 34.6238 714.096 36.2895C715.12 34.6833 716.882 31.3994 716.632 27.3064C716.56 26.1523 716.453 24.6055 715.417 22.9993C714.346 21.3335 712.87 20.4769 711.953 20.0723C711.918 18.6207 711.81 17.0859 711.572 15.5153C710.763 10.1611 707.799 0.0238611 702.323 0.0119629C697.085 0.0119629 693.918 9.29255 693.073 15.5391C692.847 17.2167 692.775 18.7516 692.763 20.0128C691.883 20.3936 690.275 21.2383 689.145 23.0112C688.109 24.6174 688.002 26.1761 687.93 27.3183C687.68 31.4113 689.442 34.6952 690.466 36.3014C691.775 34.6 693.085 32.8867 694.394 31.1852C694.394 31.2209 694.418 31.2566 694.43 31.2923L694.418 31.2804Z" fill="#0000FF"/>
<path d="M0 158.234C1.70233 158.234 4.59509 153.82 4.59509 145.991V51.4954C4.59509 43.6783 1.70233 39.2522 0 39.2522H38.094C36.3917 39.2522 33.4989 43.6664 33.4989 51.4954V155.509H37.0702L75.3309 124.241H77.0332L70.7358 158.234H0Z" fill="black"/>
<path d="M100.997 98.9217C100.997 120.338 123.449 134.438 140.615 134.438C150.484 134.438 158.638 129.679 159.662 118.97L160.852 119.315C161.531 138.864 149.46 159.936 124.115 159.936C100.307 159.936 82.9619 141.577 82.9619 116.936C82.9619 90.9262 102.342 71.5559 130.068 71.5559C147.579 71.5559 160.507 79.2064 160.507 92.9727C160.507 107.596 131.77 112.521 106.937 113.2C139.758 102.325 133.46 78.1832 117.306 78.1832C107.104 78.1832 100.985 87.8683 100.985 98.9217H100.997Z" fill="black"/>
<path d="M203.649 127.132C195.387 135.461 194.923 150.584 202.708 158.234H166.364C181.233 146.336 187.601 132.058 201.53 124.408L166.126 73.2454H212.613C211.434 74.6018 208.601 80.3843 212.851 85.9883L228.195 106.56C239.29 98.9098 239.052 81.5741 230.552 73.2454H266.897C251.326 85.6552 244.945 100.778 229.374 108.083L266.897 158.222H225.124L203.649 127.12V127.132Z" fill="black"/>
<path d="M272.123 158.234C273.825 158.234 276.718 153.82 276.718 145.991V81.9192C276.718 78.0165 275.528 73.9355 273.147 73.2573C276.206 73.9355 279.611 74.2805 283.004 74.2805C292.182 74.2805 301.872 71.7343 305.622 64.762V85.6671C308.681 75.1253 319.395 68.3314 330.109 68.3314C339.466 68.3314 348.644 73.4238 352.561 85.6671C355.62 75.1253 366.334 68.3314 377.215 68.3314C389.464 68.3314 401.536 77.3383 401.536 99.9449V146.003C401.536 153.82 404.428 158.246 406.131 158.246H368.037C369.739 158.246 372.632 153.832 372.632 146.003V99.9449C372.632 86.5238 367.87 81.9311 362.775 81.9311C359.204 81.9311 355.466 84.3107 353.085 87.3685C354.108 90.938 354.62 95.1856 354.62 99.9449V146.003C354.62 153.82 357.513 158.246 359.215 158.246H321.121C322.824 158.246 325.717 153.832 325.717 146.003V99.9449C325.717 86.5238 320.955 82.0976 315.86 82.0976C311.943 82.0976 307.872 84.8223 305.658 88.2133V146.003C305.658 153.82 308.55 158.246 310.253 158.246H272.159L272.123 158.234Z" fill="#0000FF"/>
<path d="M450.998 71.8888C471.069 71.8888 492.318 80.7292 492.318 107.917V135.282C492.318 146.847 499.794 158.234 499.794 158.234H463.403V149.905C460.343 155.01 451.498 159.424 440.951 159.424C423.773 159.424 412.035 147.692 412.035 132.57C412.035 101.634 460.498 116.769 463.391 105.882V105.37C463.391 95.5187 456.76 91.4376 448.26 91.4376C435.344 91.4376 418.499 100.79 414.595 113.187C414.595 104.014 412.892 90.5809 416.297 84.1202C419.868 77.4929 434.999 71.877 450.986 71.877L450.998 71.8888ZM463.414 109.285C456.105 116.769 440.963 113.021 440.963 130.357C440.963 143.278 449.463 150.929 456.439 150.929C459.153 150.929 461.712 149.905 463.414 147.359V109.285Z" fill="#0000FF"/>
<path d="M505.746 158.234C507.448 158.234 510.341 153.82 510.341 145.991V39.2641C513.234 40.4539 516.46 40.9655 519.698 40.9655C527.519 40.9655 535.686 37.5627 539.257 30.7688V107.25C539.257 107.25 572.756 75.3037 557.113 69.6878H595.029C586.863 70.711 545.542 105.382 539.257 110.986V146.003C539.257 153.82 542.15 158.246 543.852 158.246H505.758L505.746 158.234ZM561.018 158.234L539.257 110.986C542.316 113.533 561.53 103.681 564.589 96.0304L588.91 150.584C590.446 153.986 593.16 158.234 595.029 158.234H561.018Z" fill="#0000FF"/>
<path d="M609.646 98.9217C609.646 120.338 632.098 134.438 649.264 134.438C659.133 134.438 667.287 129.679 668.311 118.97L669.502 119.315C670.18 138.864 658.109 159.936 632.765 159.936C608.956 159.936 591.611 141.577 591.611 116.936C591.611 90.9262 610.992 71.5559 638.717 71.5559C656.228 71.5559 669.156 79.2064 669.156 92.9727C669.156 107.596 640.419 112.521 615.587 113.2C648.407 102.325 642.11 78.1832 625.955 78.1832C615.753 78.1832 609.635 87.8683 609.635 98.9217H609.646Z" fill="#0000FF"/>
</g>
<defs>
<clipPath id="clip0_108_229">
<rect width="735" height="194" fill="white"/>
</clipPath>
</defs>
</svg>
