<?xml version="1.0" encoding="UTF-8"?>
<svg id="Capa_5" data-name="Capa 5" xmlns="http://www.w3.org/2000/svg" version="1.1" viewBox="0 0 1328.6 468">
  <defs>
    <style>
      .cls-1 {
        fill: blue;
      }

      .cls-1, .cls-2 {
        stroke-width: 0px;
      }

      .cls-2 {
        fill: #0f232e;
      }
    </style>
  </defs>
  <path class="cls-2" d="M98.1,353.1c3,0,8.1-7.8,8.1-21.6v-167.1c0-13.8-5.1-21.6-8.1-21.6h67.3c-3,0-8.1,7.8-8.1,21.6v183.9h6.3l67.6-55.3h3l-11.1,60.1h-125Z"/>
  <path class="cls-2" d="M276.6,248.2c0,37.9,39.7,62.8,70,62.8s31.9-8.4,33.7-27.4l2.1.6c1.2,34.6-20.1,71.8-64.9,71.8s-72.7-32.5-72.7-76,34.3-80.2,83.2-80.2,53.8,13.5,53.8,37.9-50.8,34.6-94.7,35.8c58-19.2,46.9-61.9,18.3-61.9s-28.9,17.1-28.9,36.7h0Z"/>
  <path class="cls-2" d="M458,298.1c-14.6,14.7-15.4,41.5-1.7,55h-64.2c26.3-21,37.5-46.3,62.1-59.8l-62.6-90.5h82.2c-2.1,2.4-7.1,12.6.4,22.5l27.1,36.4c19.6-13.5,19.2-44.2,4.2-58.9h64.2c-27.5,21.9-38.8,48.7-66.3,61.6l66.3,88.6h-73.8l-38-55h0Z"/>
  <path class="cls-1" d="M579,353.1c3,0,8.1-7.8,8.1-21.6v-113.3c0-6.9-2.1-14.1-6.3-15.3,5.4,1.2,11.4,1.8,17.4,1.8,16.2,0,33.3-4.5,40-16.8v37c5.4-18.6,24.3-30.6,43.3-30.6s32.8,9,39.7,30.6c5.4-18.6,24.3-30.6,43.6-30.6s43,15.9,43,55.9v81.4c0,13.8,5.1,21.6,8.1,21.6h-67.3c3,0,8.1-7.8,8.1-21.6v-81.4c0-23.7-8.4-31.9-17.4-31.9s-12.9,4.2-17.1,9.6c1.8,6.3,2.7,13.8,2.7,22.2v81.4c0,13.8,5.1,21.6,8.1,21.6h-67.3c3,0,8.1-7.8,8.1-21.6v-81.4c0-23.7-8.4-31.6-17.4-31.6s-14.1,4.8-18,10.8v102.2c0,13.8,5.1,21.6,8.1,21.6h-67.3,0Z"/>
  <path class="cls-1" d="M895.1,200.4c35.5,0,73,15.6,73,63.7v48.4c0,20.4,13.2,40.6,13.2,40.6h-64.3v-14.7c-5.4,9-21,16.8-39.7,16.8-30.3,0-51.1-20.7-51.1-47.5,0-54.7,85.7-28,90.8-47.2v-.9c0-17.4-11.7-24.6-26.8-24.6-22.8,0-52.6,16.5-59.5,38.5,0-16.2-3-40,3-51.4,6.3-11.7,33.1-21.6,61.3-21.6h0ZM917,266.5c-12.9,13.2-39.7,6.6-39.7,37.3s15,36.4,27.3,36.4,9.3-1.8,12.3-6.3v-67.3h0Z"/>
  <path class="cls-1" d="M991.8,353.1c3,0,8.1-7.8,8.1-21.6v-188.7c5.1,2.1,10.8,3,16.5,3,13.8,0,28.2-6,34.6-18v135.2s59.2-56.5,31.6-66.4h67c-14.4,1.8-87.4,63.1-98.6,73v61.9c0,13.8,5.1,21.6,8.1,21.6h-67.3ZM1089.5,353.1l-38.5-83.5c5.4,4.5,39.4-12.9,44.8-26.4l43,96.5c2.7,6,7.5,13.5,10.8,13.5h-60.1Z"/>
  <path class="cls-1" d="M1175.5,248.2c0,37.9,39.7,62.8,70,62.8s31.9-8.4,33.7-27.4l2.1.6c1.2,34.6-20.1,71.8-64.9,71.8s-72.7-32.5-72.7-76,34.3-80.2,83.2-80.2,53.8,13.5,53.8,37.9-50.8,34.6-94.7,35.8c58-19.2,46.9-61.9,18.3-61.9s-28.8,17.1-28.8,36.7h0Z"/>
</svg>