<?xml version="1.0" encoding="UTF-8"?>
<svg id="Capa_5" data-name="Capa 5" xmlns="http://www.w3.org/2000/svg" viewBox="0 0 406 402">
  <defs>
    <style>
      .cls-1 {
        fill: blue;
        stroke-width: 0px;
      }
    </style>
  </defs>
  <path class="cls-1" d="m149.14,291.08h108.51c8.79,11.44,17.57,22.89,26.36,34.33,7.03-11,19.09-33.57,17.38-61.61-.48-7.89-1.26-18.54-8.32-29.57-7.31-11.42-17.5-17.27-23.73-20.07-.22-9.97-1.02-20.47-2.64-31.27-5.52-36.72-25.88-106.2-63.42-106.29h-.08c-35.93,0-57.6,63.64-63.4,106.45-1.56,11.51-2.05,22.02-2.09,30.65-6.07,2.59-17.03,8.43-24.78,20.53-7.06,11.04-7.84,21.68-8.32,29.57-1.71,28.04,10.35,50.61,17.38,61.61,8.98-11.7,17.96-23.39,26.94-35.09.07.25.14.5.21.76Z"/>
</svg>