<?xml version="1.0" encoding="UTF-8"?>
<svg id="Capa_5" data-name="Capa 5" xmlns="http://www.w3.org/2000/svg" viewBox="0 0 384 321">
  <defs>
    <style>
      .cls-1 {
        fill: blue;
        stroke-width: 0px;
      }
    </style>
  </defs>
  <path class="cls-1" d="m245.75,27.69c-4.57-2.63-10.28-.67-12.23,3.57-1.99,4.34.43,10.09,5.59,11.69,45.38,18.62,77.45,63.23,77.45,115.24,0,33.91-13.63,64.69-35.68,87.17-6.47-2.69-15.8-7.34-25.05-14.75-14.16-11.33-20.86-24.23-24.59-31.28-3.66-6.91-8.3-17.41-11.05-31.07h-56.49c-2.78,9.27-7.44,21.07-15.49,33.39-15.3,23.38-34.8,36.28-46.18,42.57-21.41-22.38-34.57-52.7-34.57-86.04,0-52.92,33.2-98.2,79.85-116.21,6.04-2.45,7.92-9.25,5.56-13.09-2.2-3.58-8.41-5.08-13.34-1.67-51.91,20.87-88.68,71.69-88.68,130.98,0,77.84,63.33,141.17,141.17,141.17s141.17-63.33,141.17-141.17c0-58.81-36.17-109.31-87.42-130.5Z"/>
  <path class="cls-1" d="m158.1,156.66h68.3c5.53,7.2,11.06,14.41,16.59,21.61,4.43-6.92,12.02-21.13,10.94-38.78-.3-4.97-.79-11.67-5.24-18.62-4.6-7.19-11.02-10.87-14.94-12.64-.14-6.28-.64-12.89-1.66-19.68-3.47-23.12-16.29-66.85-39.92-66.9h-.05c-22.62,0-36.26,40.06-39.91,67.01-.98,7.25-1.29,13.86-1.32,19.29-3.82,1.63-10.72,5.3-15.6,12.92-4.45,6.95-4.94,13.65-5.24,18.62-1.08,17.65,6.51,31.86,10.94,38.78,5.65-7.36,11.31-14.72,16.96-22.09.04.16.09.32.13.48Z"/>
</svg>